<svg width="221" height="63" viewBox="0 0 221 63" fill="none" xmlns="http://www.w3.org/2000/svg">
<g clip-path="url(#clip0_57_481)">
<path d="M126.796 -69.3697C123.646 -69.3697 121.112 -67.9065 116.043 -64.9799L10.6393 -4.12514C10.5375 -4.06636 10.4367 -4.00818 10.337 -3.95058L9.08379 -7.71008L3.8069 -9.41732L3.03088 -8.17569V1.91248L3.04423 1.90377C3.03869 1.96316 3.03593 2.02287 3.03593 2.08298C3.03593 3.90128 5.57038 5.36455 10.6393 8.29108L82.8277 49.9691C87.8965 52.8956 90.431 54.3589 93.5804 54.3589C96.7298 54.3589 99.2643 52.8956 104.333 49.9691L209.737 -10.8857C214.741 -13.7747 217.275 -15.2377 217.339 -17.0239L217.366 -17.0223V-27.2656L213.175 -26.024L208.25 -24.1604L137.548 -64.9799C132.48 -67.9065 129.945 -69.3697 126.796 -69.3697Z" fill="#E44449"/>
<rect width="108.188" height="146.542" rx="6.20811" transform="matrix(0.866025 0.5 -0.866026 0.5 126.796 -81.5149)" fill="#F15156"/>
<g clip-path="url(#clip1_57_481)">
<path d="M74.9123 2.79088C71.1953 0.932287 67.0897 -2.2134 67.6001 -2.59218C68.0842 -2.94928 73.5574 -2.31088 75.9642 -2.00915C75.1117 -1.23808 74.8898 -0.278368 74.7593 0.610446C74.6664 1.34719 74.7044 2.07931 74.9109 2.79006L74.9123 2.79088Z" fill="#FA9700"/>
<path d="M74.7607 0.611103C74.8912 -0.277712 75.1117 -1.23825 75.9656 -2.00849C76.6535 -1.92217 77.0929 -1.864 77.0929 -1.864L77.2095 3.77279C76.496 3.53297 75.7132 3.19128 74.9137 2.79154C74.7087 2.07996 74.6692 1.34867 74.7621 0.611928L74.7607 0.611103Z" fill="#F27006"/>
<path d="M101.948 8.44564C100.695 10.4809 97.3628 11.6687 94.0342 12.5526L87.3192 8.17936L96.1015 2.35154C97.4866 2.58643 98.8829 2.84285 100.281 3.11671C102.019 4.71685 103.067 6.58518 101.946 8.44648L101.948 8.44564Z" fill="#F27006"/>
<path d="M101.948 8.4456C103.067 6.58514 102.019 4.71681 100.282 3.11583C116.832 6.35478 133.637 11.9714 133.637 11.9714L112.172 24.3644L94.0357 12.5533C97.3642 11.6695 100.695 10.4826 101.949 8.44642L101.948 8.4456Z" fill="#FA9700"/>
<path d="M67.564 -2.45267C70.0751 -2.48175 72.353 -1.31031 73.8631 -0.151019C75.1434 0.858844 75.6014 1.97715 75.6232 3.1344C72.0291 1.48208 67.7453 -1.67458 67.5626 -2.45183L67.564 -2.45267Z" fill="#FEB8AC"/>
<path d="M99.5891 9.67557C104.932 6.5909 96.7537 0.714522 92.739 -2.06454C88.7229 -4.84276 81.7319 -5.14769 77.8232 -2.891C73.9145 -0.634317 74.4427 3.40196 79.2547 5.72066C84.0667 8.03936 94.2463 12.7602 99.5891 9.67557Z" fill="#FFF3DB"/>
<path d="M78.7444 -3.35023C82.7552 -5.08674 89.0199 -4.63636 92.7363 -2.0646C94.7415 -0.677972 97.7837 1.4828 99.6621 3.68185C94.9317 2.04696 89.9486 2.74757 87.5044 1.66225C85.1117 0.599992 80.6482 -2.15584 78.743 -3.35106L78.7444 -3.35023Z" fill="#FA9700"/>
<path d="M77.0265 -2.35831C79.0952 -1.2575 83.8699 1.3187 85.7098 2.70012C87.5896 4.11129 86.3761 6.98828 89.2079 9.71935C85.399 8.63486 81.6579 6.87764 79.2547 5.72077C74.7989 3.57429 74.0202 -0.0418136 77.0279 -2.35748L77.0265 -2.35831Z" fill="#FA9700"/>
<path d="M85.0448 4.72399C84.3256 5.13923 82.9882 5.01542 81.9965 4.44287C81.8693 4.36944 81.8706 4.24988 81.9994 4.17552C82.1282 4.10116 82.3353 4.10041 82.4625 4.17384C83.1712 4.58304 84.1433 4.71316 84.5861 4.4575C85.029 4.20183 84.8021 3.64143 84.0934 3.23223C83.9662 3.1588 83.9675 3.03924 84.0963 2.96488C84.2251 2.89052 84.4322 2.88977 84.5593 2.96319C85.551 3.53575 85.764 4.30874 85.0463 4.72315L85.0448 4.72399Z" fill="#593A42"/>
<path d="M91.58 0.950768C90.8623 1.36518 89.5234 1.2422 88.5317 0.669646C88.4045 0.59622 88.4058 0.476663 88.5346 0.402304C88.6634 0.327944 88.8705 0.327189 88.9977 0.400615C89.7064 0.809821 90.6785 0.939941 91.1214 0.684278C91.5642 0.428615 91.3374 -0.131787 90.6286 -0.540993C90.5014 -0.614419 90.5027 -0.733976 90.6315 -0.808336C90.7603 -0.882695 90.9674 -0.88345 91.0946 -0.810024C92.0863 -0.237466 92.2993 0.535523 91.5815 0.949932L91.58 0.950768Z" fill="#593A42"/>
<path d="M98.9031 6.39038C99.9891 7.01739 99.7478 8.17311 98.3673 8.97018C96.9867 9.76724 94.9835 9.90739 93.8975 9.28038C92.8115 8.65337 93.0513 7.49848 94.4347 6.69974C95.8182 5.90101 97.8171 5.76337 98.9031 6.39038Z" fill="#593A42"/>
<path d="M93.9153 7.39227C93.52 7.77562 93.4919 8.23899 93.8024 8.63885C94.0194 8.91951 94.741 8.67777 94.5255 8.3996C94.3326 8.1529 94.3962 7.85711 94.6346 7.62543C94.9079 7.35877 94.1914 7.1256 93.9167 7.39144L93.9153 7.39227Z" fill="#936170"/>
<path d="M94.3246 8.75323C94.1413 8.81451 94.0389 8.97263 94.1643 9.0801C94.227 9.133 94.2825 9.18676 94.3451 9.23967C94.472 9.34631 94.6986 9.39695 94.9093 9.32811C95.0912 9.26767 95.1964 9.10788 95.0682 9.00208C95.0055 8.94917 94.9486 8.89459 94.8873 8.84251C94.7605 8.73587 94.5338 8.68522 94.3231 8.75407L94.3246 8.75323Z" fill="#936170"/>
<path d="M106.959 17.6818C104.796 15.8317 96.4939 8.03545 106.366 8.92764C110.728 9.31024 114.85 10.6875 118.454 11.9678C121.548 13.0541 124.525 14.2919 127.423 15.559L114.306 23.132C111.729 21.3714 109.215 19.5823 106.959 17.6818Z" fill="#FFF3DB"/>
<path d="M110.628 -17.2525C107.078 -20.3263 104.25 -23.754 110.917 -26.4018C117.583 -29.0496 122.681 -25.5398 122.515 -25.4437C122.349 -25.3476 134.639 -25.106 133.358 -22.2163C132.077 -19.3266 124.662 -18.4859 124.662 -18.4859C124.662 -18.4859 122.266 -17.8371 120.225 -17.7342C120.225 -17.7342 127.482 -11.2617 144.86 -10.0714C154.485 -7.00895 163.103 -5.04452 163.103 -5.04452L143.556 6.24142C130.128 -0.934213 114.288 -14.0836 110.628 -17.2542L110.628 -17.2525Z" fill="#FFF3DB"/>
<path d="M151.848 1.45729L143.558 6.24304C140.661 4.69362 137.648 2.86567 134.671 0.919687C135.859 0.415562 137.288 -0.0172178 138.827 -0.413864C143.969 -1.7012 149.089 -1.10965 151.85 1.45729L151.848 1.45729Z" fill="#593A42"/>
<path d="M147.674 3.86695C147.674 3.86695 133.045 -5.697 121.069 -7.36441C109.093 -9.03016 106.451 -4.36132 107.453 -1.37285C107.453 -1.37285 106.385 1.53766 103.406 3.17327C103.406 3.17327 110.045 5.45708 113.503 0.742912C113.503 0.742912 118.861 -1.9267 125.717 0.911736C132.571 3.75101 133.071 12.298 133.071 12.298L147.674 3.86695Z" fill="#FF740C"/>
<path d="M107.397 -1.23145C112.025 -1.77469 113.503 0.742966 113.503 0.742966C110.046 5.45796 103.406 3.17332 103.406 3.17332C105.997 1.75166 107.142 -0.633592 107.396 -1.23228L107.397 -1.23145Z" fill="#FFF3DB"/>
<path d="M130.692 0.104874C138.313 1.58393 142.757 3.79189 145.114 5.34495L133.07 12.2988C133.07 12.2988 132.571 3.751 125.715 0.912569C118.861 -1.9267 113.502 0.743747 113.502 0.743747C113.502 0.743747 117.828 -2.39118 130.691 0.10571L130.692 0.104874Z" fill="#ED4714"/>
<path d="M102.741 3.87224C103.963 3.89435 104.984 3.51454 105.021 3.02291C105.058 2.53294 104.096 2.11802 102.874 2.09591C101.652 2.0738 100.633 2.45444 100.596 2.9444C100.559 3.43437 101.521 3.84929 102.743 3.87141L102.741 3.87224Z" fill="#593A42"/>
<path d="M110.104 -0.256699C111.36 0.0201691 112.549 0.765522 111.58 1.53618C111.419 1.66379 111.048 1.54476 111.211 1.41632C112.001 0.786616 111.012 0.207407 109.994 -0.0180197C109.741 -0.073554 109.85 -0.313058 110.104 -0.256699Z" fill="#593A42"/>
<path d="M101.624 2.3412C101.832 2.3064 102.035 2.28324 102.254 2.2841C102.806 2.28541 102.759 2.77791 102.21 2.77659C102.067 2.77628 101.933 2.80084 101.798 2.82292C101.268 2.9112 101.096 2.42946 101.625 2.34202L101.624 2.3412Z" fill="#936170"/>
<path d="M103.069 2.23971C103.237 2.2283 103.376 2.23194 103.541 2.25043C103.77 2.277 103.883 2.43931 103.819 2.55744C103.742 2.69553 103.51 2.74702 103.283 2.72128C103.269 2.72133 103.256 2.72055 103.242 2.7206C103.011 2.73639 102.788 2.67411 102.737 2.53315C102.696 2.41209 102.838 2.25549 103.069 2.23971Z" fill="#936170"/>
<path d="M90.6036 16.0494C90.6036 16.0494 89.3349 15.1699 88.5317 14.1915C89.2663 14.2095 90.0056 14.1902 90.7325 14.122L91.2013 15.442L90.6022 16.0503L90.6036 16.0494Z" fill="#EFDCBD"/>
<path d="M88.5331 14.1907C88.2919 13.8977 88.0938 13.5962 87.9848 13.306C87.9457 13.2016 87.9253 13.0946 87.9179 12.985C87.6646 12.8705 87.4305 12.7153 87.3791 12.5469C87.3357 12.4417 87.3859 12.3236 87.603 12.3236C87.7713 12.3238 87.8926 12.4073 87.9881 12.4791C87.9896 12.475 87.9925 12.4716 87.9911 12.4675C87.7552 12.2176 87.3812 11.9649 87.3642 11.6744C87.367 11.5491 87.4816 11.4648 87.7025 11.5088C87.9709 11.5601 88.1456 11.7579 88.2822 11.8853C88.268 11.7434 88.1581 11.0082 88.3281 10.849C88.4835 10.7081 88.6333 10.818 88.7068 10.9306C88.7861 11.0482 88.8019 11.1794 88.799 11.3097C89.5558 10.617 90.6423 10.1432 91.4425 10.3461C93.0888 10.7619 90.3474 13.0459 90.3474 13.0459L90.7297 14.1204C90.0028 14.1887 89.262 14.2072 88.5288 14.1899L88.5331 14.1907Z" fill="#FFF3DB"/>
<path d="M85.3138 16.9239C85.3138 16.9239 84.4344 15.4252 85.1185 15.3239C85.8012 15.2235 86.2588 16.3783 86.2588 16.3783C86.2588 16.3783 86.8078 14.5647 87.607 14.7287C88.4076 14.8935 87.7545 16.1022 87.7545 16.1022C87.7545 16.1022 91.3083 14.7351 92.292 14.4609C93.2757 14.1867 95.1954 14.0568 94.4585 15.167L96.0627 16.5393C96.0627 16.5393 99.03 14.2387 101.197 15.0436C103.362 15.8477 103.735 16.9049 103.392 17.1029C103.049 17.3009 102.282 17.1559 102.282 17.1559C102.282 17.1559 103.999 17.9367 103.515 18.4142C103.194 18.7317 102.012 18.3383 102.012 18.3383C102.012 18.3383 103.515 19.5084 102.763 19.9113C102.362 20.1261 101.14 19.5793 101.14 19.5793C101.14 19.5793 101.472 20.9995 100.575 21.1746C99.6784 21.3505 97.2916 21.0637 97.2916 21.0637C97.2916 21.0637 101.927 22.1543 103.197 23.0845C104.465 24.0155 103.907 24.387 102.883 24.3908C102.883 24.3908 105.683 25.7097 106.816 27.4532L96.3011 33.524C96.3011 33.524 86.3852 20.0707 85.2078 18.5972C85.2078 18.5972 82.2543 17.4 82.7966 16.8575C83.3302 16.3234 85.311 16.9222 85.311 16.9222L85.3138 16.9239Z" fill="#FFF3DB"/>
<path d="M103.558 27.5606C102.519 26.8205 99.1524 25.2512 101.858 24.5672C100.774 24.2225 98.204 23.4871 100.304 22.8751C99.2995 22.716 95.5193 22.1711 95.6084 21.3804C95.6664 20.8173 97.3644 20.9738 98.7783 21.1986C97.9937 21.15 97.2915 21.0654 97.2915 21.0654C97.2915 21.0654 101.927 22.156 103.197 23.0862C104.465 24.0172 103.907 24.3887 102.883 24.3924C102.883 24.3924 105.683 25.7114 106.816 27.4549L101.595 30.4694C101.197 30.1363 100.918 29.7662 100.839 29.3596C100.647 28.4537 101.908 27.4952 103.558 27.5589L103.558 27.5606Z" fill="#EFDCBD"/>
<path d="M91.1623 10.729C91.6328 11.2296 89.9506 12.9119 89.9506 12.9119L90.5958 15.5904C90.5958 15.5904 88.6557 13.2437 88.5481 12.9627C88.4404 12.6816 90.5695 10.1027 91.1594 10.729L91.1623 10.729Z" fill="#FEB8AC"/>
<path d="M79.6373 17.9159C79.766 17.8515 79.9542 17.8683 80.1079 17.8851C80.1036 17.8827 80.1022 17.8785 80.098 17.8744C79.6331 17.7781 79.0598 17.7329 78.7156 17.5224C78.5757 17.4283 78.5654 17.3221 78.7831 17.2706C79.0455 17.2066 79.4055 17.2874 79.6538 17.3305C79.4809 17.2307 78.5604 16.7243 78.5077 16.5419C78.465 16.3785 78.7063 16.4025 78.8897 16.4583C79.0847 16.5157 79.2462 16.6072 79.3932 16.7055C79.1777 15.9026 79.465 15.1361 80.305 14.9828C82.0326 14.6668 82.552 17.408 82.552 17.408L85.9311 18.866L86.1695 19.5467C86.1695 19.5467 82.8438 19.2558 81.0459 18.5019C80.8971 18.4393 80.7598 18.3668 80.6298 18.2884C80.3061 18.2987 79.9512 18.2726 79.7194 18.1672C79.5677 18.1046 79.4711 17.9987 79.6345 17.9159L79.6373 17.9159Z" fill="#FFF3DB"/>
<path d="M80.525 15.3755C81.4533 15.5689 82.0926 17.4603 82.0926 17.4603L85.6618 19.0264C85.6618 19.0264 81.4863 18.1981 81.0841 18.0294C80.6819 17.8607 79.3586 15.1316 80.525 15.3739L80.525 15.3755Z" fill="#FEB8AC"/>
<path d="M91.7297 17.4965C91.7788 17.615 91.7431 17.7231 91.627 17.8165C91.2977 18.0825 90.4879 18.0979 89.2165 17.8568C89.1548 17.8446 89.1221 17.8074 89.1441 17.7716C89.1632 17.7358 89.231 17.7165 89.2927 17.7287C90.742 18.0024 91.2596 17.8834 91.438 17.7391C91.5149 17.6783 91.5358 17.6101 91.5021 17.5305C91.4069 17.3017 90.8891 17.0463 90.5508 16.9495C90.5035 16.9356 90.4765 16.905 90.4898 16.8742C90.5016 16.8443 90.5479 16.8225 90.6025 16.8206C90.9736 16.8127 91.3573 16.8387 91.778 16.8994C91.8483 16.9099 91.9215 16.9204 91.9962 16.9318C92.3737 16.9894 92.8015 17.0559 93.1545 16.9957C93.277 16.9744 93.3608 16.936 93.4016 16.881C93.4498 16.8152 93.4364 16.729 93.3597 16.6429C93.2064 16.4575 92.8681 16.3591 92.5399 16.2631L92.4682 16.2418C92.4223 16.2287 92.3968 16.1989 92.4072 16.1682C92.4176 16.1391 92.4595 16.1165 92.5127 16.1138C92.6005 16.1093 92.6883 16.1049 92.7775 16.1012C93.1904 16.0823 93.6177 16.0633 93.9754 15.964C94.1456 15.9136 94.2383 15.8568 94.2475 15.797C94.2615 15.7081 94.1017 15.5858 93.814 15.4631C93.7625 15.4417 93.7515 15.3986 93.7906 15.3678C93.8269 15.3369 93.9032 15.3308 93.9562 15.353C94.2124 15.4609 94.5111 15.6283 94.4847 15.8069C94.4677 15.9174 94.3329 16.01 94.0819 16.0857C93.7256 16.1841 93.3299 16.2113 92.9414 16.2293C93.1965 16.3131 93.4384 16.4176 93.5746 16.5798C93.6826 16.7007 93.6999 16.8293 93.6211 16.9325C93.5934 16.97 93.5542 17.0025 93.505 17.0309C93.4326 17.0727 93.3374 17.1046 93.2236 17.1241C92.8058 17.1937 92.345 17.1231 91.9372 17.0615C91.864 17.0493 91.7922 17.0396 91.7248 17.0291C91.4807 16.9935 91.2509 16.971 91.0295 16.9602C91.3372 17.0978 91.6571 17.2975 91.7384 17.4948L91.7297 17.4965Z" fill="#EFDCBD"/>
<path d="M92.1521 19.6254C92.1179 19.594 92.1342 19.5533 92.189 19.5315C92.2439 19.5114 92.3171 19.5202 92.3513 19.5516C92.5193 19.7038 92.761 19.8316 93.0905 19.9416C93.7281 20.1477 93.9887 20.1243 94.0928 20.0692C94.294 19.953 93.949 19.6803 93.8362 19.5985C93.6765 19.4746 93.4805 19.3865 93.2538 19.3375C93.2036 19.3285 93.1649 19.3212 93.1376 19.3155C93.0802 19.3024 93.0504 19.2652 93.0695 19.231C93.09 19.1961 93.1535 19.1776 93.2138 19.1874C93.2583 19.1947 93.2999 19.202 93.3429 19.2118C93.5956 19.254 93.9935 19.2866 94.1796 19.2303C94.2287 19.2152 94.2562 19.196 94.268 19.1694C94.2827 19.1378 94.273 19.1121 94.2402 19.0865C94.069 18.9576 93.388 18.9053 93.0774 18.9064C93.0112 18.9066 92.9598 18.8769 92.9602 18.8388C92.9606 18.8006 93.0127 18.7705 93.0789 18.7702C93.0904 18.7702 94.1256 18.7764 94.4266 19.0019C94.505 19.0606 94.5287 19.1294 94.4963 19.2009C94.4683 19.265 94.3958 19.3167 94.2876 19.3495C94.1635 19.3865 94.0038 19.3978 93.8399 19.3951C93.9042 19.4322 93.9656 19.471 94.0227 19.5157C94.4092 19.799 94.493 20.0295 94.2542 20.1674C93.8926 20.3596 93.2005 20.1355 92.9727 20.0608C92.6102 19.9384 92.3414 19.7966 92.1535 19.6263L92.1521 19.6254Z" fill="#EFDCBD"/>
<path d="M96.1797 25.692C96.2388 25.6776 96.3076 25.694 96.3331 25.7288C96.4393 25.8803 96.8571 26.0714 97.2589 26.1546C97.4956 26.2027 97.6969 26.2086 97.8209 26.17C97.971 26.1196 98.0452 26.0438 98.0521 25.9392C98.0633 25.7034 97.7016 25.3826 97.3836 25.2642C97.3292 25.2444 97.3153 25.203 97.3487 25.1721C97.3821 25.1396 97.4556 25.1302 97.5086 25.1491C98.0773 25.3455 98.6971 25.4711 98.8071 25.4126C98.8302 25.3992 98.8395 25.3394 98.726 25.202C98.3554 24.7708 97.5451 24.303 96.7969 24.0882C96.7467 24.0743 96.7212 24.0412 96.7373 24.0104C96.752 23.9788 96.8026 23.9578 96.8587 23.9601C97.3273 23.9767 98.1301 23.9389 98.1759 23.6963C98.1911 23.6215 98.1529 23.5577 98.0572 23.5008C97.7415 23.3085 96.8952 23.2526 96.5312 23.2664C96.4665 23.2692 96.4107 23.2403 96.4082 23.2038C96.4043 23.1664 96.455 23.1339 96.5197 23.1311C96.8895 23.1173 97.8351 23.167 98.2279 23.4072C98.3693 23.4938 98.4315 23.5966 98.4072 23.7096C98.3537 23.9995 97.7389 24.0773 97.2828 24.0947C97.9559 24.3497 98.5986 24.7525 98.9337 25.1414C98.9876 25.206 99.1523 25.403 98.9699 25.5083C98.9671 25.5099 98.9642 25.5116 98.9613 25.5133C98.7776 25.6111 98.3584 25.5412 97.9928 25.4487C98.1637 25.5992 98.2897 25.7789 98.2821 25.9433C98.2766 26.0554 98.2094 26.1487 98.0835 26.2213C98.0387 26.2472 97.9881 26.2698 97.9304 26.29C97.7399 26.3488 97.4782 26.3464 97.174 26.2844C96.702 26.1874 96.2442 25.9715 96.1111 25.7844C96.0856 25.7496 96.1177 25.7096 96.1768 25.6953L96.1797 25.692Z" fill="#EFDCBD"/>
<path d="M90.2606 23.7585C90.2653 23.7211 90.3188 23.6918 90.3849 23.6933C90.4482 23.6947 90.4996 23.7261 90.4949 23.7634C90.4656 24.079 90.7492 24.4366 91.2692 24.4895C91.456 24.5005 91.6131 24.4692 91.7102 24.4033C91.8145 24.3315 91.8415 24.2251 91.7839 24.1099C91.7698 24.0801 91.7917 24.0493 91.8365 24.0317C91.8841 24.0157 91.943 24.0197 91.9802 24.0411C92.3831 24.2738 92.8214 24.4382 92.9511 24.4079C93.0175 24.3894 93.035 24.3677 93.0409 24.3527C93.0881 24.243 92.8128 24.0339 92.6959 23.9447L92.6645 23.9199C92.6246 23.8902 92.6337 23.8486 92.6886 23.8252C92.7392 23.8026 92.8139 23.8089 92.8524 23.8379L92.8837 23.8627C93.0449 23.9858 93.3444 24.2138 93.2692 24.3859C93.2573 24.4142 93.2311 24.4492 93.1746 24.4818C93.1428 24.5002 93.0995 24.5186 93.0446 24.5337C92.7765 24.5961 92.3371 24.4109 92.0467 24.265C92.0357 24.3506 91.9817 24.428 91.8904 24.4906C91.7383 24.5933 91.5106 24.6406 91.2332 24.6242C90.5553 24.5552 90.2263 24.1264 90.2606 23.7585Z" fill="#EFDCBD"/>
<path d="M89.7786 21.2695C89.7537 21.3169 89.7115 21.3578 89.6551 21.3903C89.5987 21.4229 89.5265 21.4481 89.4415 21.4642C89.3118 21.4896 89.1724 21.4809 89.0334 21.4374C88.708 21.3382 88.4278 21.0627 88.3575 20.9102C88.3407 20.8738 88.377 20.8363 88.4404 20.8261C88.5038 20.8159 88.5683 20.8364 88.5837 20.8737C88.6357 20.9839 88.8731 21.2346 89.1468 21.3175C89.2285 21.3429 89.3018 21.3485 89.371 21.3349C89.469 21.3146 89.5283 21.282 89.5547 21.2305C89.6399 21.0658 89.3815 20.7645 89.2117 20.6431C89.1718 20.615 89.1794 20.5743 89.2315 20.5476C89.2821 20.5233 89.3554 20.5288 89.3967 20.5577C89.5679 20.6817 89.9006 21.0325 89.7787 21.2679L89.7786 21.2695Z" fill="#EFDCBD"/>
<path d="M88.1836 20.6477C88.1836 20.6477 88.1735 20.6536 88.1691 20.6561C88.0476 20.7263 87.8748 20.7501 87.6882 20.7193C87.1931 20.6256 86.9787 19.9771 86.9813 19.7463C86.9831 19.709 87.0352 19.6789 87.0999 19.6778C87.1646 19.6784 87.2161 19.7081 87.2171 19.7455C87.2144 19.9929 87.4486 20.5308 87.7586 20.5895C87.8634 20.6065 87.9512 20.5954 88.0106 20.5562C88.1033 20.4977 88.126 20.3906 88.0638 20.2945C88.0412 20.2597 88.0718 20.2206 88.1324 20.2071C88.1929 20.1935 88.2603 20.2107 88.2829 20.2455C88.3777 20.3888 88.3371 20.5508 88.1836 20.6477Z" fill="#EFDCBD"/>
<path d="M101.611 25.8665C101.675 25.8604 101.734 25.886 101.745 25.9224C101.818 26.202 102.467 27.0057 103.093 26.9478C103.178 26.9384 103.23 26.9133 103.262 26.8684C103.328 26.7693 103.263 26.5985 103.157 26.4835C103.127 26.4562 103.101 26.4331 103.08 26.4141C103.046 26.3843 103.055 26.3427 103.107 26.321C103.159 26.2992 103.229 26.3047 103.269 26.3328C103.298 26.3527 103.326 26.3791 103.355 26.4072C103.386 26.4354 103.417 26.4668 103.456 26.5007C103.706 26.7372 104.229 27.231 104.529 27.1991C104.676 27.1803 104.716 27.1345 104.732 27.1021C104.858 26.8542 104.15 26.2599 103.903 26.1172C103.857 26.0908 103.858 26.0476 103.904 26.0208C103.95 25.9941 104.025 25.9938 104.071 26.0202C104.262 26.1308 105.132 26.7984 104.957 27.1386C104.938 27.1744 104.905 27.2152 104.842 27.2511C104.78 27.2871 104.696 27.3156 104.574 27.3318C104.231 27.3679 103.882 27.1326 103.524 26.8176C103.519 26.8516 103.508 26.8849 103.486 26.9157C103.426 27.0064 103.306 27.0641 103.136 27.0813C102.305 27.1583 101.603 26.2567 101.519 25.944C101.509 25.9067 101.553 25.8717 101.618 25.8656L101.611 25.8665Z" fill="#FFF3DB"/>
<path d="M94.3578 28.191L94.3423 28.1637C94.3211 28.128 94.356 28.0897 94.418 28.077C94.4785 28.0652 94.5459 28.084 94.5657 28.1188L94.5812 28.1462C94.7688 28.4784 95.1624 29.1702 95.7942 29.2526C95.8833 29.2622 95.9968 29.266 96.0403 29.2326C96.123 29.1684 96.0362 28.9578 95.8386 28.7435C95.8074 28.7104 95.8308 28.6688 95.8871 28.6512C95.9448 28.6327 96.0151 28.6449 96.0464 28.678C96.1445 28.7831 96.4483 29.1423 96.2293 29.3116C96.2191 29.3191 96.2076 29.3275 96.196 29.3342C96.099 29.3901 95.9478 29.4081 95.7425 29.3848C94.98 29.2855 94.5581 28.5456 94.3578 28.1893L94.3578 28.191Z" fill="#EFDCBD"/>
<path d="M96.5495 28.427C96.6058 28.4077 96.6776 28.4174 96.7103 28.4497C97.2354 28.9584 97.7725 29.2901 98.0187 29.2552C98.1397 29.2382 98.2274 29.105 98.26 28.8882C98.2662 28.8517 98.3226 28.8224 98.3887 28.8255C98.4534 28.8277 98.5019 28.8608 98.4943 28.8981C98.4618 29.11 98.3826 29.2514 98.2509 29.3274C98.1988 29.3575 98.1396 29.3768 98.0705 29.387C97.5434 29.4604 96.8014 28.8047 96.5068 28.5193C96.4741 28.4871 96.4918 28.4455 96.5481 28.4262L96.5495 28.427Z" fill="#EFDCBD"/>
<path d="M97.1866 18.0338C98.1707 18.3764 99.7169 17.949 100.638 17.0789C101.559 16.2088 101.507 15.2243 100.523 14.8817C99.5386 14.5391 97.9924 14.9665 97.0712 15.8366C96.1499 16.7067 96.2025 17.6912 97.1866 18.0338Z" fill="#593A42"/>
<path d="M98.6262 15.132C99.1098 14.9617 99.7759 14.9352 100.254 15.1144C100.518 15.2131 100.215 15.4358 99.9541 15.3388C99.6705 15.2336 99.1986 15.2569 98.9156 15.3576C98.6486 15.4523 98.3548 15.2293 98.6248 15.1328L98.6262 15.132Z" fill="#936170"/>
<path d="M100.602 15.2683C100.768 15.3109 100.89 15.386 100.948 15.4862C101.046 15.6569 100.591 15.7632 100.492 15.5909C100.474 15.5585 100.462 15.542 100.409 15.5281C100.122 15.4544 100.317 15.1938 100.602 15.2683Z" fill="#936170"/>
<path d="M94.8369 16.7107C95.107 16.8666 95.4732 16.906 95.657 16.7999C95.8408 16.6937 95.7712 16.4815 95.5026 16.3264C95.2339 16.1713 94.8648 16.1303 94.681 16.2364C94.4973 16.3425 94.5668 16.5548 94.8369 16.7107Z" fill="#593A42"/>
<path d="M92.7068 17.9406C92.9769 18.0965 93.3432 18.1358 93.527 18.0297C93.7107 17.9236 93.6412 17.7113 93.3725 17.5562C93.1039 17.4011 92.7348 17.3601 92.551 17.4663C92.3672 17.5724 92.4368 17.7846 92.7068 17.9406Z" fill="#593A42"/>
</g>
</g>
<defs>
<clipPath id="clip0_57_481">
<rect width="220.578" height="62.7332" fill="white" transform="translate(0 0.0090332)"/>
</clipPath>
<clipPath id="clip1_57_481">
<rect width="118.748" height="60.3017" rx="9.31217" transform="matrix(0.866025 -0.5 0.866025 0.5 44.0811 3.37468)" fill="white"/>
</clipPath>
</defs>
</svg>
