<svg width="194" height="136" viewBox="0 0 194 136" fill="none" xmlns="http://www.w3.org/2000/svg">
<g clip-path="url(#clip0_57_346)">
<path d="M126.48 12.1453C123.331 12.1453 120.796 13.6086 115.727 16.5351L10.3238 77.3899C10.222 77.4487 10.1212 77.5068 10.0215 77.5645L8.7683 73.8049L3.49141 72.0977L2.71539 73.3393V83.4275L2.72874 83.4188C2.7232 83.4782 2.72043 83.5379 2.72043 83.598C2.72044 85.4163 5.25489 86.8796 10.3238 89.8061L82.5122 131.484C87.5811 134.411 90.1155 135.874 93.2649 135.874C96.4143 135.874 98.9488 134.411 104.018 131.484L209.421 70.6293C214.425 67.7404 216.959 66.2774 217.023 64.4911L217.05 64.4928V54.2494L212.86 55.491L207.935 57.3547L137.233 16.5351C132.164 13.6086 129.63 12.1453 126.48 12.1453Z" fill="#E44449"/>
<rect width="108.188" height="146.542" rx="6.20811" transform="matrix(0.866025 0.5 -0.866026 0.5 126.48 2.86102e-05)" fill="#F15156"/>
<g clip-path="url(#clip1_57_346)">
<path d="M74.5965 84.3058C70.8796 82.4472 66.774 79.3015 67.2843 78.9227C67.7685 78.5656 73.2417 79.204 75.6485 79.5057C74.7959 80.2768 74.574 81.2365 74.4435 82.1253C74.3506 82.8621 74.3886 83.5942 74.5951 84.3049L74.5965 84.3058Z" fill="#FA9700"/>
<path d="M74.4448 82.1263C74.5753 81.2375 74.7958 80.2769 75.6498 79.5067C76.3376 79.593 76.777 79.6512 76.777 79.6512L76.8936 85.288C76.1802 85.0481 75.3973 84.7065 74.5978 84.3067C74.3928 83.5951 74.3534 82.8639 74.4463 82.1271L74.4448 82.1263Z" fill="#F27006"/>
<path d="M87.3471 76.9442C88.0395 77.4058 88.6313 77.8578 89.0467 78.2697L79.2835 78.2024C79.2835 78.2024 79.1827 77.9487 79.0332 77.5516C80.3687 77.0594 82.0296 76.9321 83.5705 76.8559C84.8466 76.8023 86.1146 76.8242 87.3457 76.9434L87.3471 76.9442Z" fill="#F27006"/>
<path d="M78.0232 72.7225C78.6793 72.4278 84.1264 74.7973 87.347 76.9442C86.1159 76.825 84.8478 76.803 83.5718 76.8567C82.0308 76.9328 80.3671 77.0601 79.0345 77.5523C78.5133 76.1619 77.4047 73.002 78.0247 72.7233L78.0232 72.7225Z" fill="#FA9700"/>
<path d="M101.632 89.9605C100.379 91.9958 97.0472 93.1835 93.7186 94.0674L87.0036 89.6942L95.7859 83.8664C97.171 84.1013 98.5673 84.3577 99.9649 84.6315C101.703 86.2317 102.751 88.1 101.631 89.9613L101.632 89.9605Z" fill="#F27006"/>
<path d="M101.632 89.9604C102.751 88.1 101.703 86.2316 99.9664 84.6307C116.517 87.8696 133.321 93.4862 133.321 93.4862L111.856 105.879L93.7201 94.0682C97.0486 93.1843 100.379 91.9974 101.634 89.9613L101.632 89.9604Z" fill="#FA9700"/>
<path d="M67.2483 79.0623C69.7594 79.0332 72.0373 80.2047 73.5474 81.364C74.8277 82.3738 75.2857 83.4921 75.3075 84.6494C71.7134 82.9971 67.4296 79.8404 67.2469 79.0632L67.2483 79.0623Z" fill="#FEB8AC"/>
<path d="M78.2655 72.7016C78.2151 74.1513 80.2426 75.4673 82.252 76.3383C84.0012 77.0775 85.9381 77.3419 87.9425 77.3545C85.0806 75.2795 79.6131 72.8062 78.2669 72.7007L78.2655 72.7016Z" fill="#FEB8AC"/>
<path d="M99.2735 91.1905C104.616 88.1058 96.438 82.2294 92.4234 79.4503C88.4073 76.6721 81.4162 76.3672 77.5075 78.6239C73.5988 80.8806 74.127 84.9168 78.939 87.2355C83.751 89.5542 93.9307 94.2751 99.2735 91.1905Z" fill="#FFF3DB"/>
<path d="M78.4286 78.1646C82.4394 76.4281 88.7041 76.8785 92.4205 79.4502C94.4257 80.8369 97.4679 82.9976 99.3463 85.1967C94.6159 83.5618 89.6328 84.2624 87.1886 83.1771C84.7959 82.1148 80.3324 79.359 78.4272 78.1638L78.4286 78.1646Z" fill="#FA9700"/>
<path d="M76.7108 79.1565C78.7795 80.2573 83.5542 82.8335 85.3941 84.2149C87.2739 85.6261 86.0604 88.5031 88.8921 91.2341C85.0833 90.1497 81.3421 88.3924 78.939 87.2356C74.4831 85.0891 73.7045 81.473 76.7122 79.1573L76.7108 79.1565Z" fill="#FA9700"/>
<path d="M84.7292 86.2389C84.01 86.6541 82.6726 86.5303 81.6809 85.9577C81.5537 85.8843 81.555 85.7648 81.6838 85.6904C81.8126 85.616 82.0197 85.6153 82.1468 85.6887C82.8556 86.0979 83.8277 86.228 84.2705 85.9724C84.7133 85.7167 84.4865 85.1563 83.7778 84.7471C83.6506 84.6737 83.6519 84.5541 83.7807 84.4798C83.9095 84.4054 84.1166 84.4046 84.2437 84.4781C85.2354 85.0506 85.4484 85.8236 84.7307 86.238L84.7292 86.2389Z" fill="#593A42"/>
<path d="M91.2644 82.4656C90.5466 82.8801 89.2078 82.7571 88.2161 82.1845C88.0889 82.1111 88.0902 81.9915 88.219 81.9172C88.3478 81.8428 88.5549 81.8421 88.6821 81.9155C89.3908 82.3247 90.3629 82.4548 90.8057 82.1992C91.2486 81.9435 91.0217 81.3831 90.313 80.9739C90.1858 80.9005 90.1871 80.7809 90.3159 80.7065C90.4447 80.6322 90.6518 80.6314 90.779 80.7049C91.7707 81.2774 91.9836 82.0504 91.2659 82.4648L91.2644 82.4656Z" fill="#593A42"/>
<path d="M98.5874 87.9053C99.6734 88.5323 99.4321 89.688 98.0515 90.485C96.671 91.2821 94.6677 91.4223 93.5817 90.7953C92.4957 90.1682 92.7356 89.0134 94.119 88.2146C95.5025 87.4159 97.5013 87.2782 98.5874 87.9053Z" fill="#593A42"/>
<path d="M93.5997 88.907C93.2044 89.2904 93.1763 89.7538 93.4869 90.1536C93.7038 90.4343 94.4255 90.1925 94.2099 89.9144C94.0171 89.6677 94.0807 89.3719 94.3191 89.1402C94.5923 88.8735 93.8759 88.6404 93.6012 88.9062L93.5997 88.907Z" fill="#936170"/>
<path d="M94.0089 90.268C93.8256 90.3293 93.7232 90.4874 93.8486 90.5949C93.9113 90.6478 93.9668 90.7015 94.0295 90.7544C94.1563 90.8611 94.3829 90.9117 94.5936 90.8429C94.7755 90.7824 94.8808 90.6227 94.7525 90.5169C94.6898 90.4639 94.6329 90.4094 94.5716 90.3573C94.4448 90.2506 94.2182 90.2 94.0075 90.2688L94.0089 90.268Z" fill="#936170"/>
<path d="M106.643 99.1967C104.481 97.3466 96.1782 89.5503 106.05 90.4425C110.412 90.8251 114.534 92.2024 118.138 93.4827C121.232 94.569 124.209 95.8068 127.107 97.0739L113.991 104.647C111.413 102.886 108.899 101.097 106.643 99.1967Z" fill="#FFF3DB"/>
<path d="M153.364 41.9579C153.508 41.9457 155.505 42.5777 156.726 42.9701L155.21 44.6917L153.859 43.9112C153.859 43.9112 153.157 41.9752 153.364 41.9579Z" fill="#FEB8AC"/>
<path d="M150.248 45.2437C149.958 44.8006 150.651 41.3875 151.899 40.8699C153.147 40.3522 157.46 42.1389 157.46 42.1389L156.729 42.9702C155.507 42.5769 153.511 41.9458 153.367 41.9579C153.16 41.9753 153.862 43.9113 153.862 43.9113C153.862 43.9113 154.207 46.2911 154.028 46.4968C153.848 46.7025 150.541 45.6868 150.251 45.2437L150.248 45.2437Z" fill="#352328"/>
<path d="M156.972 36.583C156.706 36.5333 154.475 37.3791 154.475 37.3791C154.475 37.3791 153.435 37.8097 153.229 37.7589C153.022 37.7082 153.189 36.4307 153.986 35.9853C156.52 35.4597 163.391 36.3371 169.805 42.2041L168.266 42.0976C162.353 37.3288 156.973 36.5821 156.973 36.5821L156.972 36.583Z" fill="#352328"/>
<path d="M154.477 37.3782C154.477 37.3782 156.706 36.5316 156.973 36.5821C156.973 36.5821 162.353 37.3288 168.266 42.0976L159.048 41.4579L154.477 37.3782Z" fill="#FEB8AC"/>
<path d="M152.376 52.2388C150.875 50.8827 155.209 47.3177 155.209 47.3177C152.573 41.979 159.503 39.7171 166.481 40.81C173.459 41.9028 198.825 55.6676 198.825 55.6676L183.266 64.6509L164.953 50.4353C157.485 54.612 153.876 53.5949 152.376 52.2388Z" fill="#593A42"/>
<path d="M191.963 59.6294L183.266 64.6508L164.954 50.4352C164.954 50.4352 166.198 49.8703 167.58 48.9487C167.58 48.9487 185.686 56.9142 191.963 59.6294Z" fill="#352328"/>
<path d="M159.297 45.1409C160.64 45.9164 162.609 46.0371 163.693 45.4113C164.776 44.7855 164.567 43.6489 163.224 42.8734C161.881 42.0979 159.912 41.9772 158.828 42.603C157.744 43.2288 157.953 44.3654 159.297 45.1409Z" fill="#352328"/>
<path d="M160.458 44.4707C160.879 44.7141 161.455 44.7776 161.743 44.6113C162.031 44.445 161.922 44.1133 161.499 43.8691C161.077 43.6249 160.502 43.5623 160.214 43.7285C159.926 43.8948 160.035 44.2265 160.458 44.4707Z" fill="#191113"/>
<path d="M156.983 46.3166C157.405 46.56 157.979 46.6226 158.267 46.4564C158.555 46.2901 158.447 45.9584 158.025 45.715C157.604 45.4717 157.028 45.4082 156.74 45.5744C156.452 45.7407 156.56 46.0724 156.983 46.3166Z" fill="#191113"/>
<path d="M151.877 52.2331C152.729 52.7248 154.3 52.6161 155.384 51.9903C156.468 51.3645 156.656 50.4572 155.804 49.9655C154.953 49.4738 153.381 49.5825 152.297 50.2083C151.214 50.8341 151.024 51.7405 151.877 52.2331Z" fill="#191113"/>
<path d="M153.148 50.0258C153.669 49.847 154.299 49.8331 154.844 49.9739C155.225 50.0722 154.897 50.3988 154.52 50.3014C154.184 50.2146 153.781 50.2427 153.468 50.3509C153.107 50.4751 152.787 50.15 153.151 50.0258L153.148 50.0258Z" fill="#593A42"/>
<path d="M154.998 50.2117C155.081 50.1292 155.297 50.0819 155.442 50.1403C155.514 50.1683 155.588 50.1946 155.66 50.2225C155.804 50.2809 155.874 50.3828 155.778 50.4778C155.695 50.5603 155.479 50.6076 155.334 50.5492C155.264 50.5204 155.188 50.4949 155.116 50.4669C154.972 50.4085 154.902 50.3067 154.997 50.2108L154.998 50.2117Z" fill="#593A42"/>
<path d="M162.857 48.5766C162.857 48.5766 166.638 47.7998 167.511 49.0262C168.385 50.2526 162.123 50.3302 162.123 50.3302C162.123 50.3302 162.836 49.7041 162.859 48.5774L162.857 48.5766Z" fill="#FEB8AC"/>
<path d="M165.718 49.4429C164.726 49.4283 163.687 49.5035 162.733 49.6763C162.533 49.7127 162.453 49.5312 162.653 49.4948C163.627 49.3185 164.705 49.2407 165.72 49.2553C165.928 49.2587 165.928 49.4455 165.718 49.4429Z" fill="#FC8686"/>
<path d="M162.465 47.4946C163.135 48.2443 163.16 49.0321 162.682 49.8292C162.032 50.9158 160.655 51.5344 158.954 52.0578C158.769 52.115 158.608 51.952 158.794 51.8957C160.309 51.4302 161.5 50.9178 162.223 49.9936C162.839 49.2076 162.862 48.3508 162.181 47.5894C162.085 47.4827 162.368 47.3887 162.463 47.4954L162.465 47.4946Z" fill="#352328"/>
<path d="M138.504 60.1333C138.528 60.5616 138.577 60.9823 138.685 61.3937C134.872 58.7177 133.727 56.3043 134.272 55.9885C134.95 55.5966 138.119 56.6561 139.987 57.3383C138.871 58.1809 138.459 58.996 138.506 60.1325L138.504 60.1333Z" fill="#FA9700"/>
<path d="M138.504 60.1333C138.458 58.9969 138.871 58.1826 139.986 57.3392C140.803 57.6376 141.373 57.8646 141.373 57.8646L139.972 62.2425C139.512 61.9586 139.084 61.6746 138.683 61.3946C138.577 60.9823 138.527 60.5624 138.503 60.1341L138.504 60.1333Z" fill="#FF740C"/>
<path d="M152.591 53.7887C152.946 53.9635 153.303 54.1465 153.661 54.3394L146.078 55.1483C146.078 55.1483 145.722 54.8507 145.243 54.4158C146.359 54.0738 147.75 53.9077 148.864 53.7758C150.085 53.6518 151.367 53.6604 152.591 53.7904L152.591 53.7887Z" fill="#FF740C"/>
<path d="M142.83 51.0474C143.39 50.724 147.801 51.4344 152.592 53.7897C151.369 53.6596 150.086 53.651 148.865 53.775C147.752 53.9078 146.36 54.0731 145.245 54.4151C144.067 53.3475 142.137 51.4476 142.831 51.0465L142.83 51.0474Z" fill="#FA9700"/>
<path d="M135.412 56.6485C135.587 56.5026 140.438 58.1403 140.498 58.4573C140.558 58.7742 140.071 61.0732 139.691 60.9874C139.31 60.9008 135.065 56.9362 135.413 56.6477L135.412 56.6485Z" fill="#FEB8AC"/>
<path d="M143.972 51.7064C143.719 51.8078 146.555 54.6086 147.104 54.6431C147.653 54.6777 151.635 54.3966 151.487 54.1772C151.337 53.9569 144.47 51.5062 143.97 51.7073L143.972 51.7064Z" fill="#FEB8AC"/>
<path d="M164.501 75.4847C164.501 75.4847 146.919 68.7394 141.857 64.4199C136.795 60.1005 140.887 56.9622 142.702 55.9145C144.517 54.8668 149.952 52.5041 157.432 55.4274C164.914 58.3499 176.597 68.5008 176.597 68.5008L164.499 75.4856L164.501 75.4847Z" fill="#FFF3DB"/>
<path d="M142.982 55.7592C145.032 54.6566 150.301 52.6424 157.432 55.4275C164.914 58.35 176.597 68.5009 176.597 68.5009L176.238 68.7081C169.436 61.4842 156.818 54.7606 142.982 55.7592Z" fill="#FFF9EE"/>
<path d="M149.386 59.0368C146.73 58.4205 143.993 56.2204 143.454 56.5312C142.916 56.8421 146.728 58.4213 147.794 59.9559C148.621 61.1417 143.057 62.4746 140.492 63.0186C137.687 59.4273 141.088 56.8462 142.7 55.9155C144.313 54.9847 148.698 53.0551 154.831 54.5944C154.001 55.9399 151.55 59.5395 149.386 59.0368Z" fill="#FA9700"/>
<path d="M146.55 67.4457C148.728 68.1484 151.121 68.6544 153.621 69.0297C158.63 69.786 163.756 70.209 168.26 71.7401C168.73 71.8962 169.343 72.0932 169.972 72.3258L164.5 75.4849C164.5 75.4849 153.659 71.3243 146.55 67.4457Z" fill="#FA9700"/>
<path d="M165.416 62.2195C164.766 60.7765 163.889 59.394 162.673 58.1373C169.389 62.2407 176.597 68.5009 176.597 68.5009L171.125 71.6599C170.724 71.2961 170.381 70.9428 170.111 70.6715C167.459 68.0726 166.725 65.1122 165.416 62.2195Z" fill="#FA9700"/>
<path d="M142.981 55.7584C144.773 54.7946 149.026 53.1361 154.831 54.5944C154.558 55.0396 154.104 55.7303 153.544 56.438C150.162 55.7654 146.614 55.4961 142.98 55.7593L142.981 55.7584Z" fill="#FF9E10"/>
<path d="M176.597 68.5009L176.238 68.7081C173.233 65.5177 169.095 62.4253 164.219 60.0529C163.775 59.3903 163.266 58.7487 162.674 58.1382C169.391 62.2416 176.598 68.5017 176.598 68.5017L176.597 68.5009Z" fill="#FF9E10"/>
<path d="M148.94 57.8553C149.028 57.8044 149.029 57.723 148.942 57.6727C148.456 57.3922 148.302 57.0075 148.605 56.8329C148.907 56.6583 149.573 56.7472 150.059 57.0277C150.146 57.078 150.287 57.0775 150.376 57.0265C150.464 56.9755 150.465 56.8942 150.378 56.8438C149.699 56.452 148.782 56.3673 148.29 56.6514C147.798 56.9354 147.945 57.4646 148.624 57.8565C148.711 57.9068 148.852 57.9063 148.94 57.8553Z" fill="#593A42"/>
<path d="M144.655 60.3293C144.743 60.2783 144.744 60.1969 144.657 60.1466C144.171 59.8661 144.017 59.4814 144.32 59.3068C144.622 59.1322 145.288 59.2211 145.774 59.5016C145.861 59.5519 146.002 59.5514 146.091 59.5004C146.179 59.4495 146.18 59.3681 146.093 59.3178C145.414 58.9259 144.497 58.8413 144.005 59.1253C143.513 59.4094 143.66 59.9385 144.339 60.3304C144.426 60.3807 144.567 60.3802 144.655 60.3293Z" fill="#593A42"/>
<path d="M153.532 58.8507C154.058 59.9679 153.483 60.9862 151.993 61.767C150.541 62.5295 148.194 62.8054 146.571 62.0923C146.408 62.0199 146.568 61.8565 146.734 61.929C148.367 62.6462 150.524 62.2871 151.941 61.5431C153.27 60.845 153.678 59.8738 153.218 58.8983C153.163 58.7814 153.479 58.733 153.534 58.8498L153.532 58.8507Z" fill="#593A42"/>
<path d="M152.05 61.5824C151.45 61.2392 150.919 60.8526 150.223 60.5679C150.054 60.4988 150.216 60.3346 150.386 60.4046C151.108 60.6992 151.657 61.0932 152.282 61.4487C152.429 61.5337 152.199 61.6666 152.05 61.5824Z" fill="#593A42"/>
<path d="M147.384 61.0491C148.235 61.5408 149.807 61.4321 150.891 60.8063C151.975 60.1806 152.164 59.2741 151.311 58.7816C150.458 58.289 148.888 58.3985 147.804 59.0243C146.72 59.6501 146.531 60.5566 147.384 61.0491Z" fill="#593A42"/>
<path d="M148.744 58.7883C149.265 58.6096 149.895 58.5956 150.44 58.7364C150.822 58.8347 150.493 59.1613 150.116 59.0639C149.78 58.9771 149.377 59.0052 149.064 59.1134C148.702 59.2384 148.383 58.9125 148.747 58.7883L148.744 58.7883Z" fill="#936170"/>
<path d="M150.596 58.9732C150.679 58.8907 150.895 58.8434 151.04 58.9019C151.111 58.9298 151.187 58.9553 151.257 58.9841C151.402 59.0425 151.471 59.1444 151.377 59.2402C151.295 59.3235 151.078 59.37 150.933 59.3115C150.863 59.2827 150.789 59.2581 150.716 59.2293C150.571 59.1725 150.502 59.069 150.598 58.974L150.596 58.9732Z" fill="#936170"/>
<path d="M115.274 55.9312C116.304 55.5231 112.121 52.2025 113.64 50.6644C115.158 49.1263 117.966 46.6403 115.434 46.716C112.904 46.7908 107.093 49.5334 107.68 51.3993C108.269 53.2652 112.86 56.8898 115.276 55.932L115.274 55.9312Z" fill="#352328"/>
<path d="M107.677 51.3978C107.089 49.5328 112.902 46.7901 115.431 46.7145C116.05 46.6956 116.347 46.8324 116.425 47.0679C116.027 47.281 115.654 47.5115 115.306 47.7685C112.863 49.4561 110.827 52.7653 111.482 55.1507C109.674 54.1203 108.014 52.4701 107.677 51.3978Z" fill="#593A42"/>
<path d="M119.911 63.7817C121.952 63.6787 124.348 63.0299 124.348 63.0299C129.488 66.2117 137.303 69.1396 144.547 71.4453C127.169 70.255 119.912 63.7825 119.912 63.7825L119.911 63.7817Z" fill="#EFDCBD"/>
<path d="M110.313 64.2625C106.763 61.1886 103.934 57.761 110.601 55.1132C117.268 52.4654 122.366 55.9752 122.199 56.0713C122.033 56.1674 134.324 56.409 133.042 59.2987C131.761 62.1884 124.346 63.0291 124.346 63.0291C124.346 63.0291 121.951 63.6779 119.909 63.7808C119.909 63.7808 127.166 70.2533 144.544 71.4436C154.17 74.506 162.788 76.4705 162.788 76.4705L143.24 87.7564C129.813 80.5808 113.972 67.4314 110.313 64.2608L110.313 64.2625Z" fill="#FFF3DB"/>
<path d="M117.812 62.2692C117.812 62.2692 114.531 63.3222 115.447 64.4414C116.365 65.5613 120.36 63.0635 120.36 63.0635C120.36 63.0635 119.168 62.9633 117.812 62.2692Z" fill="#FEB8AC"/>
<path d="M132.053 56.6904C132.976 57.2234 132.771 58.2046 131.596 58.883C130.421 59.5614 128.722 59.6797 127.799 59.1468C126.876 58.6138 127.08 57.6326 128.255 56.9541C129.431 56.2757 131.132 56.1583 132.053 56.6904Z" fill="#593A42"/>
<path d="M118.81 59.1339C119.421 58.7814 119.238 58.1245 118.396 57.6386C118.289 57.5767 118.112 57.5765 118.002 57.64C117.892 57.7035 117.891 57.8048 118 57.8675C118.603 58.2156 118.795 58.6923 118.418 58.9096C118.042 59.1268 117.216 59.0161 116.613 58.6679C116.506 58.606 116.329 58.6058 116.219 58.6693C116.109 58.7328 116.108 58.8341 116.217 58.8968C117.059 59.3828 118.196 59.4882 118.807 59.1356L118.81 59.1339Z" fill="#593A42"/>
<path d="M122.405 57.0585C123.015 56.7059 122.833 56.0491 121.991 55.5631C121.884 55.5012 121.707 55.5011 121.597 55.5646C121.487 55.6281 121.486 55.7293 121.594 55.792C122.197 56.1402 122.389 56.6169 122.013 56.8341C121.637 57.0513 120.811 56.9406 120.208 56.5925C120.101 56.5306 119.924 56.5304 119.814 56.5939C119.704 56.6574 119.703 56.7587 119.812 56.8214C120.653 57.3073 121.791 57.4128 122.402 57.0602L122.405 57.0585Z" fill="#593A42"/>
<path d="M116.843 63.8518C117.466 63.4277 118.224 63.0497 119.042 62.7537C119.21 62.6933 119.358 62.8455 119.19 62.9059C118.393 63.1927 117.664 63.5607 117.056 63.9747C116.928 64.0615 116.717 63.9377 116.843 63.8518Z" fill="#FC8686"/>
<path d="M127.815 57.5419C127.479 57.8677 127.455 58.2613 127.717 58.6016C127.903 58.8392 128.515 58.6344 128.332 58.3984C128.167 58.1882 128.222 57.9372 128.425 57.7406C128.658 57.5139 128.047 57.3152 127.815 57.5419Z" fill="#936170"/>
<path d="M128.163 58.6987C128.007 58.7508 127.919 58.8856 128.028 58.9765C128.082 59.0212 128.129 59.0683 128.182 59.1121C128.288 59.2022 128.482 59.2455 128.661 59.1868C128.815 59.1355 128.905 58.9999 128.796 58.909C128.742 58.8643 128.695 58.8172 128.643 58.7734C128.536 58.6833 128.342 58.64 128.165 58.6979L128.163 58.6987Z" fill="#936170"/>
<path d="M109.914 59.1647C110.489 58.5259 104.369 56.4261 104.449 54.6658C104.525 52.9054 104.643 50.3097 102.463 51.0698C100.284 51.83 97.3955 55.8222 99.453 57.2909C101.511 58.7595 108.565 60.6649 109.915 59.1656L109.914 59.1647Z" fill="#352328"/>
<path d="M138.948 74.1696C136.076 72.9173 136.115 70.781 137.596 69.0795C139.902 69.9229 142.253 70.7155 144.546 71.446C146.65 72.1158 148.708 72.7326 150.636 73.2893C147.981 75.0184 141.906 75.4947 138.948 74.1713L138.948 74.1696Z" fill="#593A42"/>
<path d="M115.874 66.4836C117.351 67.8564 118.366 69.2309 117.826 70.4317C114.276 67.6269 111.573 65.3544 110.314 64.2631C109.68 63.7133 109.068 63.1527 108.531 62.5868C112.13 62.9788 113.588 64.2686 115.874 66.4836Z" fill="#593A42"/>
<path d="M151.532 82.9722L143.243 87.758C140.345 86.2086 137.332 84.3806 134.355 82.4346C135.543 81.9305 136.973 81.4977 138.511 81.1011C143.653 79.8137 148.773 80.4053 151.535 82.9722L151.532 82.9722Z" fill="#593A42"/>
<path d="M117.058 61.3844C117.642 62.2698 118.891 62.7451 120.431 62.9827C121.769 63.1887 123.055 62.9566 124.313 62.6838C124.496 62.6441 124.57 62.8141 124.389 62.8529C122.934 63.1695 121.612 63.3471 120.092 63.1127C118.543 62.8734 117.339 62.2983 116.766 61.4311C116.696 61.326 116.992 61.2809 117.06 61.3852L117.058 61.3844Z" fill="#593A42"/>
<path d="M137.596 69.0795L137.599 69.0812C138.15 69.2826 138.702 69.4806 139.256 69.6754C139.359 69.7115 139.463 69.7477 139.566 69.7838C139.998 69.935 140.431 70.0846 140.862 70.2316C141.02 70.2858 141.177 70.3384 141.334 70.3918C141.726 70.5248 142.12 70.6554 142.513 70.7851C142.665 70.8361 142.818 70.8861 142.97 70.9354C143.497 71.1078 144.023 71.2794 144.545 71.4452C141.678 71.249 139.087 70.9081 136.757 70.4765C136.922 69.9969 137.207 69.5235 137.593 69.0795L137.596 69.0795Z" fill="#352328"/>
<path d="M99.4518 57.29C97.3943 55.8214 100.284 51.8299 102.462 51.069C103.088 50.8508 103.524 50.9099 103.826 51.1462C103.174 52.5259 102.794 53.9544 103.059 55.3624C103.531 57.6919 106.229 58.7365 109.5 59.4501C107.498 60.3699 101.35 58.6447 99.4518 57.29Z" fill="#593A42"/>
<path d="M147.359 85.3821C147.359 85.3821 132.73 75.8181 120.754 74.1507C108.778 72.4849 106.135 77.1538 107.138 80.1423C107.138 80.1423 106.069 83.0528 103.091 84.6884C103.091 84.6884 109.729 86.9722 113.187 82.258C113.187 82.258 118.546 79.5884 125.401 82.4268C132.255 85.2661 132.756 93.8131 132.756 93.8131L147.359 85.3821Z" fill="#FF740C"/>
<path d="M107.082 80.2835C111.709 79.7403 113.187 82.258 113.187 82.258C109.731 86.973 103.091 84.6883 103.091 84.6883C105.682 83.2667 106.826 80.8814 107.08 80.2827L107.082 80.2835Z" fill="#FFF3DB"/>
<path d="M130.377 81.62C137.998 83.099 142.441 85.307 144.799 86.8601L132.754 93.8139C132.754 93.8139 132.255 85.2661 125.4 82.4277C118.546 79.5884 113.186 82.2589 113.186 82.2589C113.186 82.2589 117.513 79.1239 130.375 81.6208L130.377 81.62Z" fill="#ED4714"/>
<path d="M102.426 85.3874C103.648 85.4095 104.669 85.0296 104.706 84.538C104.743 84.0481 103.781 83.6331 102.559 83.611C101.337 83.5889 100.317 83.9695 100.28 84.4595C100.243 84.9495 101.205 85.3644 102.427 85.3865L102.426 85.3874Z" fill="#593A42"/>
<path d="M110.28 75.9406C110.037 75.6567 110.914 73.9225 111.789 73.7773C112.663 73.6322 119.001 76.1902 119.341 77.2367C119.677 78.2833 112.786 76.4952 112.159 76.4576C111.531 76.4192 113.129 77.2195 112.638 77.3019C112.148 77.385 110.831 76.5828 110.28 75.9406Z" fill="#593A42"/>
<path d="M109.101 79.4676C109.505 79.7011 110.042 79.7705 110.3 79.6218C110.558 79.4731 110.437 79.163 110.033 78.9295C109.629 78.696 109.091 78.6266 108.834 78.7753C108.576 78.924 108.695 79.2333 109.101 79.4676Z" fill="#593A42"/>
<path d="M109.789 81.2584C111.044 81.5353 112.234 82.2806 111.265 83.0513C111.104 83.1789 110.732 83.0599 110.895 82.9314C111.686 82.3017 110.697 81.7225 109.678 81.4971C109.426 81.4415 109.535 81.202 109.789 81.2584Z" fill="#593A42"/>
<path d="M101.308 83.8563C101.517 83.8215 101.72 83.7983 101.938 83.7992C102.491 83.8005 102.443 84.293 101.894 84.2917C101.752 84.2914 101.618 84.3159 101.482 84.338C100.952 84.4263 100.781 83.9446 101.309 83.8571L101.308 83.8563Z" fill="#936170"/>
<path d="M102.753 83.7548C102.921 83.7434 103.061 83.747 103.226 83.7655C103.454 83.7921 103.567 83.9544 103.503 84.0725C103.427 84.2106 103.195 84.2621 102.968 84.2363C102.953 84.2364 102.94 84.2356 102.926 84.2357C102.696 84.2514 102.472 84.1892 102.422 84.0482C102.38 83.9271 102.523 83.7705 102.753 83.7548Z" fill="#936170"/>
<path d="M90.2881 97.5644C90.2881 97.5644 89.0193 96.6848 88.2161 95.7064C88.9507 95.7245 89.6901 95.7052 90.417 95.637L90.8857 96.957L90.2866 97.5652L90.2881 97.5644Z" fill="#EFDCBD"/>
<path d="M88.2176 95.7057C87.9763 95.4126 87.7783 95.1112 87.6693 94.821C87.6302 94.7165 87.6098 94.6095 87.6023 94.4999C87.3491 94.3855 87.1149 94.2302 87.0636 94.0619C87.0202 93.9566 87.0703 93.8385 87.2875 93.8386C87.4557 93.8388 87.577 93.9222 87.6726 93.9941C87.6741 93.9899 87.677 93.9866 87.6756 93.9824C87.4396 93.7326 87.0656 93.4799 87.0487 93.1894C87.0515 93.064 87.166 92.9797 87.387 93.0238C87.6553 93.0751 87.83 93.2729 87.9667 93.4002C87.9524 93.2583 87.8425 92.5231 88.0125 92.3639C88.1679 92.2231 88.3177 92.3329 88.3913 92.4456C88.4705 92.5632 88.4863 92.6943 88.4835 92.8247C89.2402 92.132 90.3268 91.6581 91.127 91.8611C92.7732 92.2768 90.0319 94.5608 90.0319 94.5608L90.4141 95.6354C89.6872 95.7036 88.9464 95.7221 88.2132 95.7049L88.2176 95.7057Z" fill="#FFF3DB"/>
<path d="M84.9983 98.4388C84.9983 98.4388 84.1188 96.9401 84.803 96.8388C85.4857 96.7383 85.9433 97.8932 85.9433 97.8932C85.9433 97.8932 86.4923 96.0796 87.2915 96.2436C88.092 96.4084 87.4389 97.6171 87.4389 97.6171C87.4389 97.6171 90.9928 96.25 91.9765 95.9758C92.9602 95.7015 94.8799 95.5717 94.143 96.6819L95.7471 98.0542C95.7471 98.0542 98.7144 95.7536 100.881 96.5585C103.047 97.3626 103.419 98.4197 103.076 98.6177C102.733 98.8158 101.967 98.6708 101.967 98.6708C101.967 98.6708 103.684 99.4516 103.2 99.929C102.879 100.247 101.697 99.8532 101.697 99.8532C101.697 99.8532 103.199 101.023 102.447 101.426C102.047 101.641 100.824 101.094 100.824 101.094C100.824 101.094 101.157 102.514 100.259 102.689C99.3628 102.865 96.976 102.579 96.976 102.579C96.976 102.579 101.612 103.669 102.881 104.599C104.149 105.53 103.592 105.902 102.568 105.906C102.568 105.906 105.368 107.225 106.5 108.968L95.9855 115.039C95.9855 115.039 86.0697 101.586 84.8923 100.112C84.8923 100.112 81.9388 98.9148 82.4811 98.3724C83.0147 97.8383 84.9954 98.4371 84.9954 98.4371L84.9983 98.4388Z" fill="#FFF3DB"/>
<path d="M103.242 109.075C102.203 108.335 98.837 106.766 101.542 106.082C100.459 105.737 97.8885 105.002 99.9889 104.39C98.9841 104.231 95.2038 103.686 95.293 102.895C95.3509 102.332 97.0489 102.489 98.4629 102.713C97.6783 102.665 96.976 102.58 96.976 102.58C96.976 102.58 101.612 103.671 102.881 104.601C104.149 105.532 103.592 105.904 102.568 105.907C102.568 105.907 105.368 107.226 106.5 108.97L101.279 111.984C100.882 111.651 100.602 111.281 100.523 110.875C100.332 109.969 101.592 109.01 103.242 109.074L103.242 109.075Z" fill="#EFDCBD"/>
<path d="M90.8468 92.2439C91.3173 92.7444 89.6351 94.4268 89.6351 94.4268L90.2802 97.1052C90.2802 97.1052 88.3402 94.7586 88.2325 94.4776C88.1249 94.1965 90.254 91.6176 90.8439 92.2439L90.8468 92.2439Z" fill="#FEB8AC"/>
<path d="M79.3217 99.4309C79.4504 99.3665 79.6386 99.3833 79.7923 99.4001C79.788 99.3977 79.7866 99.3935 79.7823 99.3894C79.3175 99.2931 78.7442 99.2479 78.4 99.0374C78.2601 98.9433 78.2497 98.837 78.4674 98.7856C78.7299 98.7216 79.0899 98.8024 79.3382 98.8455C79.1653 98.7457 78.2448 98.2393 78.1921 98.0568C78.1493 97.8935 78.3907 97.9175 78.5741 97.9733C78.7691 98.0307 78.9305 98.1222 79.0776 98.2205C78.862 97.4176 79.1494 96.6511 79.9894 96.4978C81.717 96.1818 82.2363 98.923 82.2363 98.923L85.6155 100.381L85.8539 101.062C85.8539 101.062 82.5282 100.771 80.7303 100.017C80.5814 99.9543 80.4442 99.8818 80.3142 99.8034C79.9905 99.8137 79.6356 99.7876 79.4038 99.6822C79.2521 99.6196 79.1555 99.5137 79.3189 99.4309L79.3217 99.4309Z" fill="#FFF3DB"/>
<path d="M80.2095 96.8905C81.1378 97.0839 81.7771 98.9753 81.7771 98.9753L85.3463 100.541C85.3463 100.541 81.1708 99.7131 80.7686 99.5444C80.3664 99.3756 79.0431 96.6465 80.2095 96.8889L80.2095 96.8905Z" fill="#FEB8AC"/>
<path d="M91.4142 99.0117C91.4633 99.1302 91.4276 99.2383 91.3115 99.3317C90.9822 99.5977 90.1724 99.6131 88.901 99.372C88.8393 99.3598 88.8066 99.3225 88.8286 99.2868C88.8477 99.251 88.9155 99.2317 88.9772 99.2439C90.4265 99.5176 90.9441 99.3986 91.1225 99.2543C91.1994 99.1934 91.2203 99.1253 91.1867 99.0457C91.0914 98.8169 90.5736 98.5614 90.2353 98.4647C90.188 98.4508 90.161 98.4201 90.1743 98.3894C90.1861 98.3594 90.2324 98.3377 90.2871 98.3358C90.6581 98.3278 91.0418 98.3538 91.4625 98.4146C91.5328 98.4251 91.606 98.4356 91.6807 98.447C92.0582 98.5045 92.486 98.5711 92.839 98.5108C92.9615 98.4896 93.0453 98.4511 93.0862 98.3962C93.1343 98.3304 93.1209 98.2441 93.0442 98.1581C92.8909 97.9727 92.5526 97.8743 92.2244 97.7783L92.1527 97.757C92.1068 97.7439 92.0813 97.7141 92.0917 97.6833C92.1021 97.6542 92.144 97.6317 92.1972 97.629C92.285 97.6245 92.3728 97.62 92.462 97.6164C92.8749 97.5975 93.3022 97.5785 93.6599 97.4792C93.8301 97.4288 93.9228 97.372 93.932 97.3122C93.946 97.2233 93.7862 97.101 93.4986 96.9783C93.447 96.9569 93.436 96.9138 93.4751 96.8829C93.5114 96.8521 93.5877 96.846 93.6407 96.8682C93.8969 96.976 94.1956 97.1435 94.1692 97.3221C94.1522 97.4326 94.0174 97.5252 93.7664 97.6008C93.4101 97.6993 93.0144 97.7265 92.6259 97.7445C92.881 97.8282 93.1229 97.9328 93.2591 98.095C93.3671 98.2158 93.3844 98.3445 93.3056 98.4477C93.2779 98.4852 93.2387 98.5177 93.1895 98.5461C93.1171 98.5879 93.0219 98.6198 92.9081 98.6393C92.4903 98.7089 92.0295 98.6383 91.6217 98.5767C91.5485 98.5645 91.4767 98.5548 91.4093 98.5443C91.1652 98.5086 90.9354 98.4862 90.714 98.4754C91.0217 98.6129 91.3416 98.8127 91.4229 99.01L91.4142 99.0117Z" fill="#EFDCBD"/>
<path d="M91.8366 101.14C91.8024 101.109 91.8187 101.068 91.8736 101.047C91.9284 101.026 92.0017 101.035 92.0358 101.067C92.2038 101.219 92.4455 101.347 92.775 101.457C93.4127 101.663 93.6732 101.639 93.7773 101.584C93.9785 101.468 93.6335 101.195 93.5208 101.114C93.3611 100.99 93.165 100.902 92.9383 100.853C92.8881 100.844 92.8494 100.836 92.8221 100.831C92.7647 100.817 92.7349 100.78 92.754 100.746C92.7745 100.711 92.838 100.693 92.8983 100.702C92.9428 100.71 92.9844 100.717 93.0274 100.727C93.2801 100.769 93.678 100.802 93.8641 100.745C93.9132 100.73 93.9407 100.711 93.9525 100.684C93.9673 100.653 93.9575 100.627 93.9247 100.602C93.7535 100.473 93.0725 100.42 92.7619 100.421C92.6957 100.422 92.6443 100.392 92.6447 100.354C92.6451 100.316 92.6972 100.286 92.7634 100.285C92.7749 100.285 93.8102 100.291 94.1111 100.517C94.1896 100.576 94.2132 100.644 94.1808 100.716C94.1528 100.78 94.0803 100.832 93.9721 100.865C93.8481 100.902 93.6883 100.913 93.5244 100.91C93.5887 100.947 93.6501 100.986 93.7072 101.031C94.0938 101.314 94.1775 101.545 93.9387 101.682C93.5771 101.875 92.885 101.651 92.6572 101.576C92.2947 101.453 92.026 101.312 91.838 101.141L91.8366 101.14Z" fill="#EFDCBD"/>
<path d="M95.8642 107.207C95.9234 107.193 95.9922 107.209 96.0177 107.244C96.1239 107.395 96.5417 107.586 96.9434 107.67C97.1802 107.718 97.3814 107.724 97.5055 107.685C97.6556 107.635 97.7298 107.559 97.7367 107.454C97.7479 107.218 97.3862 106.898 97.0682 106.779C97.0138 106.759 96.9999 106.718 97.0333 106.687C97.0667 106.655 97.1401 106.645 97.1931 106.664C97.7619 106.861 98.3817 106.986 98.4916 106.928C98.5148 106.914 98.5241 106.854 98.4105 106.717C98.0399 106.286 97.2297 105.818 96.4814 105.603C96.4313 105.589 96.4057 105.556 96.4219 105.525C96.4366 105.494 96.4872 105.473 96.5432 105.475C97.0118 105.492 97.8146 105.454 97.8604 105.211C97.8756 105.137 97.8375 105.073 97.7418 105.016C97.4261 104.824 96.5797 104.768 96.2158 104.781C96.151 104.784 96.0953 104.755 96.0928 104.719C96.0889 104.681 96.1396 104.649 96.2043 104.646C96.574 104.632 97.5197 104.682 97.9125 104.922C98.0539 105.009 98.1161 105.112 98.0918 105.225C98.0383 105.515 97.4234 105.592 96.9674 105.61C97.6405 105.865 98.2832 106.268 98.6183 106.657C98.6722 106.721 98.8369 106.918 98.6545 107.023C98.6516 107.025 98.6487 107.027 98.6458 107.028C98.4621 107.126 98.043 107.056 97.6773 106.964C97.8483 107.114 97.9743 107.294 97.9667 107.458C97.9612 107.57 97.894 107.664 97.7681 107.736C97.7232 107.762 97.6727 107.785 97.6149 107.805C97.4245 107.864 97.1628 107.861 96.8586 107.799C96.3866 107.702 95.9288 107.487 95.7957 107.299C95.7701 107.265 95.8022 107.225 95.8613 107.21L95.8642 107.207Z" fill="#EFDCBD"/>
<path d="M89.9451 105.274C89.9498 105.236 90.0034 105.207 90.0695 105.208C90.1328 105.21 90.1842 105.241 90.1795 105.279C90.1501 105.594 90.4338 105.952 90.9538 106.005C91.1406 106.016 91.2977 105.984 91.3948 105.918C91.4991 105.847 91.5261 105.74 91.4684 105.625C91.4544 105.595 91.4763 105.564 91.521 105.547C91.5687 105.531 91.6276 105.535 91.6647 105.556C92.0677 105.789 92.5059 105.953 92.6357 105.923C92.702 105.904 92.7195 105.883 92.7254 105.868C92.7727 105.758 92.4974 105.549 92.3805 105.46L92.3491 105.435C92.3092 105.405 92.3183 105.364 92.3732 105.34C92.4237 105.318 92.4984 105.324 92.537 105.353L92.5683 105.378C92.7295 105.501 93.0289 105.729 92.9537 105.901C92.9419 105.929 92.9156 105.964 92.8592 105.997C92.8274 106.015 92.784 106.034 92.7292 106.049C92.4611 106.111 92.0216 105.926 91.7313 105.78C91.7203 105.866 91.6663 105.943 91.575 106.006C91.4229 106.108 91.1951 106.156 90.9178 106.139C90.2398 106.07 89.9109 105.641 89.9451 105.274Z" fill="#EFDCBD"/>
<path d="M89.4631 102.785C89.4381 102.832 89.396 102.873 89.3395 102.906C89.2831 102.938 89.2109 102.963 89.1259 102.979C88.9962 103.005 88.8568 102.996 88.7178 102.953C88.3925 102.853 88.1122 102.578 88.042 102.425C88.0251 102.389 88.0615 102.351 88.1249 102.341C88.1882 102.331 88.2527 102.352 88.2681 102.389C88.3201 102.499 88.5575 102.75 88.8313 102.833C88.913 102.858 88.9863 102.864 89.0554 102.85C89.1534 102.83 89.2127 102.797 89.2392 102.746C89.3244 102.581 89.066 102.28 88.8962 102.158C88.8562 102.13 88.8639 102.089 88.9159 102.063C88.9665 102.038 89.0398 102.044 89.0812 102.073C89.2524 102.197 89.585 102.548 89.4631 102.783L89.4631 102.785Z" fill="#EFDCBD"/>
<path d="M87.8681 102.163C87.8681 102.163 87.8579 102.169 87.8536 102.171C87.732 102.241 87.5592 102.265 87.3726 102.234C86.8775 102.141 86.6632 101.492 86.6657 101.261C86.6676 101.224 86.7197 101.194 86.7844 101.193C86.8491 101.193 86.9005 101.223 86.9015 101.261C86.8988 101.508 87.1331 102.046 87.4431 102.105C87.5478 102.122 87.6357 102.11 87.6951 102.071C87.7877 102.013 87.8105 101.906 87.7483 101.81C87.7256 101.775 87.7563 101.736 87.8168 101.722C87.8774 101.709 87.9447 101.726 87.9674 101.761C88.0622 101.904 88.0216 102.066 87.8681 102.163Z" fill="#EFDCBD"/>
<path d="M101.295 107.382C101.36 107.376 101.418 107.401 101.43 107.438C101.503 107.717 102.151 108.521 102.777 108.463C102.862 108.453 102.914 108.428 102.946 108.383C103.012 108.284 102.948 108.114 102.841 107.999C102.811 107.971 102.786 107.948 102.764 107.929C102.73 107.899 102.739 107.858 102.791 107.836C102.843 107.814 102.914 107.82 102.954 107.848C102.982 107.868 103.011 107.894 103.039 107.922C103.07 107.95 103.102 107.982 103.14 108.016C103.391 108.252 103.913 108.746 104.214 108.714C104.361 108.695 104.4 108.65 104.416 108.617C104.543 108.369 103.834 107.775 103.587 107.632C103.542 107.606 103.542 107.563 103.588 107.536C103.635 107.509 103.709 107.509 103.755 107.535C103.947 107.646 104.816 108.314 104.642 108.654C104.623 108.689 104.589 108.73 104.527 108.766C104.465 108.802 104.381 108.831 104.258 108.847C103.916 108.883 103.566 108.648 103.209 108.333C103.204 108.367 103.192 108.4 103.17 108.431C103.11 108.521 102.99 108.579 102.82 108.596C101.99 108.673 101.288 107.772 101.204 107.459C101.194 107.422 101.237 107.387 101.302 107.381L101.295 107.382Z" fill="#FFF3DB"/>
<path d="M94.0422 109.706L94.0267 109.679C94.0055 109.643 94.0405 109.605 94.1024 109.592C94.163 109.58 94.2303 109.599 94.2501 109.634L94.2656 109.661C94.4532 109.993 94.8469 110.685 95.4787 110.768C95.5677 110.777 95.6813 110.781 95.7248 110.748C95.8075 110.683 95.7206 110.473 95.5231 110.259C95.4918 110.225 95.5153 110.184 95.5715 110.166C95.6293 110.148 95.6996 110.16 95.7309 110.193C95.8289 110.298 96.1327 110.657 95.9137 110.827C95.9036 110.834 95.892 110.843 95.8804 110.849C95.7835 110.905 95.6323 110.923 95.4269 110.9C94.6644 110.801 94.2426 110.061 94.0423 109.704L94.0422 109.706Z" fill="#EFDCBD"/>
<path d="M96.234 109.942C96.2903 109.923 96.3621 109.932 96.3948 109.965C96.9198 110.473 97.4569 110.805 97.7032 110.77C97.8242 110.753 97.9119 110.62 97.9445 110.403C97.9506 110.367 98.007 110.337 98.0731 110.341C98.1378 110.343 98.1863 110.376 98.1787 110.413C98.1462 110.625 98.067 110.766 97.9353 110.842C97.8832 110.873 97.8241 110.892 97.7549 110.902C97.2278 110.975 96.4858 110.32 96.1913 110.034C96.1586 110.002 96.1763 109.961 96.2326 109.941L96.234 109.942Z" fill="#EFDCBD"/>
<path d="M96.871 99.5488C97.8552 99.8914 99.4014 99.464 100.323 98.5939C101.244 97.7238 101.191 96.7393 100.207 96.3967C99.223 96.0541 97.6768 96.4815 96.7556 97.3516C95.8344 98.2217 95.8869 99.2062 96.871 99.5488Z" fill="#593A42"/>
<path d="M98.3106 96.6468C98.7942 96.4765 99.4603 96.45 99.9386 96.6293C100.202 96.7279 99.8992 96.9507 99.6385 96.8537C99.355 96.7485 98.883 96.7718 98.6001 96.8724C98.333 96.9672 98.0392 96.7441 98.3092 96.6477L98.3106 96.6468Z" fill="#936170"/>
<path d="M100.286 96.7833C100.453 96.8258 100.574 96.9009 100.632 97.0012C100.731 97.1719 100.275 97.2781 100.177 97.1058C100.158 97.0735 100.147 97.0569 100.094 97.043C99.807 96.9693 100.001 96.7088 100.286 96.7833Z" fill="#936170"/>
<path d="M94.5215 98.2255C94.7916 98.3814 95.1578 98.4208 95.3416 98.3147C95.5254 98.2086 95.4558 97.9963 95.1872 97.8412C94.9185 97.6861 94.5494 97.6451 94.3656 97.7512C94.1818 97.8573 94.2514 98.0696 94.5215 98.2255Z" fill="#593A42"/>
<path d="M92.3914 99.4553C92.6614 99.6113 93.0277 99.6506 93.2115 99.5445C93.3953 99.4384 93.3257 99.2261 93.057 99.071C92.7884 98.9159 92.4193 98.8749 92.2355 98.981C92.0517 99.0871 92.1213 99.2994 92.3914 99.4553Z" fill="#593A42"/>
</g>
</g>
<defs>
<clipPath id="clip0_57_346">
<rect width="194" height="136" fill="white"/>
</clipPath>
<clipPath id="clip1_57_346">
<rect width="118.748" height="60.3017" rx="9.31217" transform="matrix(0.866025 -0.5 0.866025 0.5 43.7655 84.8897)" fill="white"/>
</clipPath>
</defs>
</svg>