<svg width="125" height="33" viewBox="0 0 125 33" fill="none" xmlns="http://www.w3.org/2000/svg">
<path d="M39.4004 22.6426C39.0784 22.6426 38.824 22.5525 38.637 22.3722C38.4605 22.1813 38.3722 21.9109 38.3722 21.5609V12.3827C38.3722 12.0327 38.4605 11.7676 38.637 11.5873C38.824 11.3965 39.0888 11.301 39.4316 11.301H44.8687C45.1387 11.301 45.3412 11.3699 45.4762 11.5078C45.6113 11.6457 45.6788 11.8419 45.6788 12.0964C45.6788 12.3615 45.6113 12.5683 45.4762 12.7167C45.3412 12.8546 45.1387 12.9235 44.8687 12.9235H40.3663V16.089H44.5415C44.8011 16.089 44.9985 16.1579 45.1335 16.2958C45.2789 16.4336 45.3516 16.6298 45.3516 16.8843C45.3516 17.1494 45.2789 17.3562 45.1335 17.5047C44.9985 17.6425 44.8011 17.7115 44.5415 17.7115H40.3663V21.5609C40.3663 22.282 40.0443 22.6426 39.4004 22.6426Z" fill="white"/>
<path d="M48.5229 22.6267C48.2113 22.6267 47.9725 22.5313 47.8063 22.3404C47.6401 22.1495 47.557 21.8844 47.557 21.545V15.7072C47.557 15.3573 47.6401 15.0922 47.8063 14.9119C47.9725 14.721 48.2113 14.6255 48.5229 14.6255C48.8345 14.6255 49.0734 14.721 49.2396 14.9119C49.4161 15.0922 49.5044 15.3573 49.5044 15.7072V21.545C49.5044 21.8844 49.4213 22.1495 49.2551 22.3404C49.089 22.5313 48.8449 22.6267 48.5229 22.6267ZM48.5229 13.1462C48.1594 13.1462 47.8738 13.0561 47.6661 12.8758C47.4687 12.6849 47.3701 12.4251 47.3701 12.0964C47.3701 11.757 47.4687 11.4972 47.6661 11.3169C47.8738 11.1366 48.1594 11.0465 48.5229 11.0465C48.8968 11.0465 49.1824 11.1366 49.3798 11.3169C49.5771 11.4972 49.6758 11.757 49.6758 12.0964C49.6758 12.4251 49.5771 12.6849 49.3798 12.8758C49.1824 13.0561 48.8968 13.1462 48.5229 13.1462Z" fill="white"/>
<path d="M52.4937 22.6426C52.1822 22.6426 51.9433 22.5578 51.7771 22.3881C51.6109 22.2078 51.5278 21.9533 51.5278 21.6246V15.6118C51.5278 15.283 51.6109 15.0338 51.7771 14.8642C51.9433 14.6945 52.177 14.6096 52.4782 14.6096C52.7794 14.6096 53.0131 14.6945 53.1792 14.8642C53.3454 15.0338 53.4285 15.283 53.4285 15.6118V16.6934L53.2571 16.2958C53.4856 15.7337 53.8387 15.3095 54.3165 15.0232C54.8046 14.7263 55.3551 14.5778 55.9679 14.5778C56.5807 14.5778 57.0844 14.6945 57.479 14.9278C57.8737 15.1611 58.1697 15.5163 58.3671 15.9935C58.5644 16.4601 58.663 17.054 58.663 17.7751V21.6246C58.663 21.9533 58.58 22.2078 58.4138 22.3881C58.2476 22.5578 58.0087 22.6426 57.6972 22.6426C57.3856 22.6426 57.1415 22.5578 56.9649 22.3881C56.7988 22.2078 56.7157 21.9533 56.7157 21.6246V17.8705C56.7157 17.2661 56.6014 16.826 56.3729 16.5503C56.1548 16.2746 55.8121 16.1367 55.3447 16.1367C54.7735 16.1367 54.3165 16.3223 53.9738 16.6934C53.6414 17.054 53.4752 17.5365 53.4752 18.141V21.6246C53.4752 22.3033 53.1481 22.6426 52.4937 22.6426Z" fill="white"/>
<path d="M63.5698 22.6744C62.9051 22.6744 62.3183 22.51 61.8094 22.1813C61.3109 21.8526 60.9214 21.386 60.641 20.7815C60.3606 20.1664 60.2203 19.4453 60.2203 18.6182C60.2203 17.7804 60.3606 17.0646 60.641 16.4707C60.9214 15.8663 61.3109 15.3997 61.8094 15.0709C62.3183 14.7422 62.9051 14.5778 63.5698 14.5778C64.2034 14.5778 64.7539 14.7369 65.2212 15.055C65.699 15.3732 66.0209 15.7921 66.1871 16.3117H66.0158V12.1759C66.0158 11.8472 66.0988 11.5979 66.265 11.4283C66.4312 11.2586 66.6701 11.1738 66.9817 11.1738C67.2932 11.1738 67.5321 11.2586 67.6983 11.4283C67.8749 11.5979 67.9631 11.8472 67.9631 12.1759V21.6246C67.9631 21.9533 67.88 22.2078 67.7139 22.3881C67.5477 22.5578 67.3088 22.6426 66.9972 22.6426C66.6857 22.6426 66.4468 22.5578 66.2806 22.3881C66.1144 22.2078 66.0313 21.9533 66.0313 21.6246V20.3838L66.2027 20.861C66.0469 21.4125 65.7301 21.8526 65.2524 22.1813C64.7746 22.51 64.2138 22.6744 63.5698 22.6744ZM64.1151 21.1633C64.4994 21.1633 64.8369 21.0678 65.1277 20.8769C65.4186 20.6861 65.6419 20.405 65.7976 20.0339C65.9638 19.6521 66.0469 19.1802 66.0469 18.6182C66.0469 17.7698 65.8703 17.1388 65.5172 16.7253C65.1641 16.3011 64.6967 16.089 64.1151 16.089C63.7308 16.089 63.3933 16.1844 63.1025 16.3753C62.8117 16.5556 62.5832 16.8366 62.417 17.2184C62.2612 17.5895 62.1833 18.0561 62.1833 18.6182C62.1833 19.4559 62.3599 20.0922 62.713 20.527C63.0661 20.9512 63.5335 21.1633 64.1151 21.1633Z" fill="white"/>
<path d="M70.1849 22.6267C69.9771 22.6267 69.811 22.579 69.6863 22.4835C69.5617 22.3881 69.489 22.2608 69.4682 22.1018C69.4474 21.9427 69.4786 21.7624 69.5617 21.5609L73.7836 11.8896C73.8875 11.6351 74.0173 11.4548 74.1731 11.3487C74.3393 11.2427 74.521 11.1897 74.7184 11.1897C74.9053 11.1897 75.0767 11.2427 75.2325 11.3487C75.3986 11.4548 75.5337 11.6351 75.6375 11.8896L79.8594 21.5609C79.9529 21.7624 79.9893 21.948 79.9685 22.1177C79.9477 22.2767 79.8802 22.404 79.766 22.4994C79.6517 22.5843 79.4907 22.6267 79.283 22.6267C79.0545 22.6267 78.8728 22.5684 78.7378 22.4517C78.6027 22.3351 78.4833 22.1548 78.3794 21.9109L77.2889 19.334L78.0211 19.7794H71.3844L72.1011 19.334L71.0261 21.9109C70.9223 22.1654 70.808 22.351 70.6834 22.4676C70.5588 22.5737 70.3926 22.6267 70.1849 22.6267ZM74.6872 13.1303L72.3348 18.825L71.9453 18.4432H77.4447L77.0864 18.825L74.7184 13.1303H74.6872Z" fill="white"/>
<path d="M82.6688 22.6426C82.3468 22.6426 82.0924 22.5525 81.9054 22.3722C81.7288 22.1813 81.6406 21.9109 81.6406 21.5609V12.3827C81.6406 12.0327 81.7288 11.7676 81.9054 11.5873C82.0924 11.3965 82.3572 11.301 82.6999 11.301H88.137C88.4071 11.301 88.6096 11.3699 88.7446 11.5078C88.8796 11.6457 88.9471 11.8419 88.9471 12.0964C88.9471 12.3615 88.8796 12.5683 88.7446 12.7167C88.6096 12.8546 88.4071 12.9235 88.137 12.9235H83.6347V16.089H87.8099C88.0695 16.089 88.2669 16.1579 88.4019 16.2958C88.5473 16.4336 88.62 16.6298 88.62 16.8843C88.62 17.1494 88.5473 17.3562 88.4019 17.5047C88.2669 17.6425 88.0695 17.7115 87.8099 17.7115H83.6347V21.5609C83.6347 22.282 83.3127 22.6426 82.6688 22.6426Z" fill="white"/>
<path d="M91.0465 22.6426C90.7246 22.6426 90.4753 22.5578 90.2987 22.3881C90.1326 22.2078 90.0495 21.9533 90.0495 21.6246V15.6118C90.0495 15.283 90.1326 15.0338 90.2987 14.8642C90.4649 14.6945 90.6986 14.6096 90.9998 14.6096C91.301 14.6096 91.5347 14.6945 91.7009 14.8642C91.867 15.0338 91.9501 15.283 91.9501 15.6118V16.6139H91.7943C91.9397 15.9776 92.2254 15.4951 92.6512 15.1664C93.077 14.8376 93.643 14.6415 94.3493 14.5778C94.5674 14.5566 94.7388 14.6149 94.8634 14.7528C94.9984 14.8801 95.0763 15.0815 95.0971 15.3573C95.1179 15.6224 95.0555 15.8398 94.9101 16.0094C94.7751 16.1685 94.5674 16.264 94.287 16.2958L93.9442 16.3276C93.3107 16.3912 92.8329 16.5927 92.511 16.932C92.189 17.2608 92.028 17.7274 92.028 18.3318V21.6246C92.028 21.9533 91.9449 22.2078 91.7788 22.3881C91.6126 22.5578 91.3685 22.6426 91.0465 22.6426Z" fill="white"/>
<path d="M97.1162 22.6267C96.8046 22.6267 96.5657 22.5313 96.3995 22.3404C96.2333 22.1495 96.1503 21.8844 96.1503 21.545V15.7072C96.1503 15.3573 96.2333 15.0922 96.3995 14.9119C96.5657 14.721 96.8046 14.6255 97.1162 14.6255C97.4277 14.6255 97.6666 14.721 97.8328 14.9119C98.0094 15.0922 98.0976 15.3573 98.0976 15.7072V21.545C98.0976 21.8844 98.0145 22.1495 97.8484 22.3404C97.6822 22.5313 97.4381 22.6267 97.1162 22.6267ZM97.1162 13.1462C96.7527 13.1462 96.467 13.0561 96.2593 12.8758C96.062 12.6849 95.9633 12.4251 95.9633 12.0964C95.9633 11.757 96.062 11.4972 96.2593 11.3169C96.467 11.1366 96.7527 11.0465 97.1162 11.0465C97.4901 11.0465 97.7757 11.1366 97.973 11.3169C98.1703 11.4972 98.269 11.757 98.269 12.0964C98.269 12.4251 98.1703 12.6849 97.973 12.8758C97.7757 13.0561 97.4901 13.1462 97.1162 13.1462Z" fill="white"/>
<path d="M103.876 22.6744C103.014 22.6744 102.271 22.51 101.648 22.1813C101.025 21.8526 100.542 21.386 100.199 20.7815C99.8666 20.177 99.7005 19.4612 99.7005 18.6341C99.7005 17.8281 99.8614 17.1229 100.183 16.5185C100.516 15.914 100.968 15.4421 101.539 15.1028C102.12 14.7528 102.78 14.5778 103.517 14.5778C104.057 14.5778 104.54 14.668 104.966 14.8482C105.402 15.0285 105.771 15.2883 106.072 15.6277C106.384 15.967 106.618 16.3806 106.773 16.8684C106.94 17.3456 107.023 17.8865 107.023 18.4909C107.023 18.6818 106.955 18.8303 106.82 18.9363C106.695 19.0317 106.514 19.0795 106.275 19.0795H101.274V17.9342H105.652L105.402 18.1728C105.402 17.685 105.33 17.2767 105.184 16.9479C105.049 16.6192 104.847 16.37 104.577 16.2003C104.317 16.0201 103.99 15.9299 103.595 15.9299C103.159 15.9299 102.785 16.036 102.474 16.248C102.172 16.4495 101.939 16.7412 101.772 17.1229C101.617 17.4941 101.539 17.9395 101.539 18.4591V18.5704C101.539 19.44 101.736 20.0922 102.131 20.527C102.536 20.9512 103.128 21.1633 103.907 21.1633C104.177 21.1633 104.478 21.1315 104.81 21.0678C105.153 20.9936 105.475 20.8716 105.776 20.702C105.994 20.5747 106.187 20.5217 106.353 20.5429C106.519 20.5535 106.649 20.6118 106.742 20.7179C106.846 20.8239 106.908 20.9565 106.929 21.1155C106.95 21.264 106.919 21.4178 106.836 21.5768C106.763 21.7359 106.633 21.8738 106.446 21.9904C106.083 22.2237 105.662 22.3987 105.184 22.5153C104.717 22.6214 104.281 22.6744 103.876 22.6744Z" fill="white"/>
<path d="M109.531 22.6426C109.219 22.6426 108.98 22.5578 108.814 22.3881C108.648 22.2078 108.565 21.9533 108.565 21.6246V15.6118C108.565 15.283 108.648 15.0338 108.814 14.8642C108.98 14.6945 109.214 14.6096 109.515 14.6096C109.816 14.6096 110.05 14.6945 110.216 14.8642C110.382 15.0338 110.465 15.283 110.465 15.6118V16.6934L110.294 16.2958C110.523 15.7337 110.876 15.3095 111.353 15.0232C111.842 14.7263 112.392 14.5778 113.005 14.5778C113.618 14.5778 114.121 14.6945 114.516 14.9278C114.911 15.1611 115.207 15.5163 115.404 15.9935C115.601 16.4601 115.7 17.054 115.7 17.7751V21.6246C115.7 21.9533 115.617 22.2078 115.451 22.3881C115.285 22.5578 115.046 22.6426 114.734 22.6426C114.423 22.6426 114.178 22.5578 114.002 22.3881C113.836 22.2078 113.753 21.9533 113.753 21.6246V17.8705C113.753 17.2661 113.638 16.826 113.41 16.5503C113.192 16.2746 112.849 16.1367 112.382 16.1367C111.81 16.1367 111.353 16.3223 111.011 16.6934C110.678 17.054 110.512 17.5365 110.512 18.141V21.6246C110.512 22.3033 110.185 22.6426 109.531 22.6426Z" fill="white"/>
<path d="M120.607 22.6744C119.942 22.6744 119.355 22.51 118.846 22.1813C118.348 21.8526 117.958 21.386 117.678 20.7815C117.398 20.1664 117.257 19.4453 117.257 18.6182C117.257 17.7804 117.398 17.0646 117.678 16.4707C117.958 15.8663 118.348 15.3997 118.846 15.0709C119.355 14.7422 119.942 14.5778 120.607 14.5778C121.24 14.5778 121.791 14.7369 122.258 15.055C122.736 15.3732 123.058 15.7921 123.224 16.3117H123.053V12.1759C123.053 11.8472 123.136 11.5979 123.302 11.4283C123.468 11.2586 123.707 11.1738 124.019 11.1738C124.33 11.1738 124.569 11.2586 124.735 11.4283C124.912 11.5979 125 11.8472 125 12.1759V21.6246C125 21.9533 124.917 22.2078 124.751 22.3881C124.585 22.5578 124.346 22.6426 124.034 22.6426C123.723 22.6426 123.484 22.5578 123.318 22.3881C123.151 22.2078 123.068 21.9533 123.068 21.6246V20.3838L123.24 20.861C123.084 21.4125 122.767 21.8526 122.289 22.1813C121.812 22.51 121.251 22.6744 120.607 22.6744ZM121.152 21.1633C121.536 21.1633 121.874 21.0678 122.165 20.8769C122.456 20.6861 122.679 20.405 122.835 20.0339C123.001 19.6521 123.084 19.1802 123.084 18.6182C123.084 17.7698 122.907 17.1388 122.554 16.7253C122.201 16.3011 121.734 16.089 121.152 16.089C120.768 16.089 120.43 16.1844 120.139 16.3753C119.849 16.5556 119.62 16.8366 119.454 17.2184C119.298 17.5895 119.22 18.0561 119.22 18.6182C119.22 19.4559 119.397 20.0922 119.75 20.527C120.103 20.9512 120.57 21.1633 121.152 21.1633Z" fill="white"/>
<path d="M19.9192 30.6751C17.6904 33.1284 13.7685 33.1519 11.5102 30.7255C10.5015 29.6417 11.285 27.9056 12.7868 27.8966L18.6084 27.8617C20.1102 27.8527 20.9147 29.5793 19.9192 30.6751Z" fill="white"/>
<path fill-rule="evenodd" clip-rule="evenodd" d="M25.4021 27.6617C24.2267 28.5749 22.5668 28.2732 21.5718 27.1709L18.4104 23.6688C17.1363 22.2574 14.8998 22.2574 13.6257 23.6688L10.2042 27.4591C9.23422 28.5336 7.6284 28.8523 6.45051 28.0038C2.54036 25.187 0 20.6299 0 15.4874C0 6.93397 7.02809 0 15.6977 0C24.3673 0 31.3954 6.93397 31.3954 15.4874C31.3954 20.4266 29.0519 24.8258 25.4021 27.6617ZM10.9586 17.2224L13.9256 20.6865C14.8679 21.7867 16.5274 21.7867 17.4698 20.6865L20.4368 17.2224C21.3892 16.1104 20.8981 14.3506 19.5196 13.9356C17.0233 13.1843 14.372 13.1843 11.8758 13.9356C10.4972 14.3506 10.0061 16.1104 10.9586 17.2224ZM11.0466 9.88374C11.0466 11.1681 10.0054 12.2093 8.721 12.2093C7.43661 12.2093 6.39542 11.1681 6.39542 9.88374C6.39542 8.59935 7.43661 7.55816 8.721 7.55816C10.0054 7.55816 11.0466 8.59935 11.0466 9.88374ZM22.6744 12.2093C23.9588 12.2093 25 11.1681 25 9.88374C25 8.59935 23.9588 7.55816 22.6744 7.55816C21.39 7.55816 20.3488 8.59935 20.3488 9.88374C20.3488 11.1681 21.39 12.2093 22.6744 12.2093Z" fill="white"/>
</svg>
